HIERARCHY
ROOT hip
{
	OFFSET 0.000000 0.000000 0.000000 
	CHANNELS 6 Xposition Yposition Zposition Xrotation Zrotation Yrotation
	JOINT abdomen
	{
		OFFSET 0.000000 3.402643 0.000000 
		CHANNELS 3 Xrotation Zrotation Yrotation
		JOINT chest
		{
			OFFSET 0.000000 8.438565 -0.680529 
			CHANNELS 3 Xrotation Zrotation Yrotation
			JOINT neck
			{
				OFFSET 0.000000 10.207942 -0.272212 
				CHANNELS 3 Xrotation Zrotation Yrotation
				JOINT head
				{
					OFFSET 0.000000 3.130431 0.000000 
					CHANNELS 3 Xrotation Zrotation Yrotation
					End Site
					{
						OFFSET 0.000000 3.130435 0.000000 
					}
				}
			}
			JOINT lCollar
			{
				OFFSET 3.470700 6.669187 -0.816635 
				CHANNELS 3 Yrotation Zrotation Xrotation
				JOINT lShldr
				{
					OFFSET 3.198488 0.000000 0.000000 
					CHANNELS 3 Zrotation Yrotation Xrotation
					JOINT lForeArm
					{
						OFFSET 10.139888 0.000000 0.000000 
						CHANNELS 3 Yrotation Zrotation Xrotation
						JOINT lHand
						{
							OFFSET 8.370511 0.000000 0.000000 
							CHANNELS 3 Zrotation Yrotation Xrotation
							End Site
							{
								OFFSET 4.083176 0.000000 0.000000 
							}
						}
					}
				}
			}
			JOINT rCollar
			{
				OFFSET -3.470700 6.669187 -0.816635 
				CHANNELS 3 Yrotation Zrotation Xrotation
				JOINT rShldr
				{
					OFFSET -3.198488 0.000000 0.000000 
					CHANNELS 3 Zrotation Yrotation Xrotation
					JOINT rForeArm
					{
						OFFSET -10.139888 0.000000 0.000000 
						CHANNELS 3 Yrotation Zrotation Xrotation
						JOINT rHand
						{
							OFFSET -8.370511 0.000000 0.000000 
							CHANNELS 3 Zrotation Yrotation Xrotation
							End Site
							{
								OFFSET -4.083176 0.000000 0.000000 
							}
						}
					}
				}
			}
		}
	}
	JOINT lThigh
	{
		OFFSET 5.308129 -1.633274 1.361059 
		CHANNELS 3 Xrotation Zrotation Yrotation
		JOINT lShin
		{
			OFFSET -2.041588 -20.007561 0.000000 
			CHANNELS 3 Xrotation Zrotation Yrotation
			JOINT lFoot
			{
				OFFSET 0.000000 -19.190928 -1.224953 
				CHANNELS 3 Xrotation Yrotation Zrotation
				End Site
				{
					OFFSET 0.000000 -2.449906 4.627600 
				}
			}
		}
	}
	JOINT rThigh
	{
		OFFSET -5.308129 -1.633274 1.361059 
		CHANNELS 3 Xrotation Zrotation Yrotation
		JOINT rShin
		{
			OFFSET 2.041588 -20.007561 0.000000 
			CHANNELS 3 Xrotation Zrotation Yrotation
			JOINT rFoot
			{
				OFFSET 0.000000 -19.190928 -1.224953 
				CHANNELS 3 Xrotation Yrotation Zrotation
				End Site
				{
					OFFSET 0.000000 -2.449906 4.627600 
				}
			}
		}
	}
}
MOTION
Frames: 16
Frame Time: 0.033333
-63.684414 52.766300 83.207787 4.042969 5.253907 -37.412106 40.350086 -12.868757 -7.444516 -39.941410 19.140627 1.572266 51.063168 8.107644 2.471410 -67.646484 -16.005857 -1.416016 2.000000 -2.000000 0.000000 -98.417969 28.496094 -38.955074 -60.773418 -1.125219 -2.405325 65.770729 54.900543 27.062456 -2.000000 2.000000 0.000000 94.013672 -29.121096 -44.369984 114.127205 -1.020021 -3.028485 -78.691353 -43.602062 102.748642 -11.739154 12.422772 45.515434 27.533648 -4.658738 -2.658474 -1.070999 17.327408 -9.403681 0.038737 -9.736387 -56.196945 10.699950 4.593558 0.841395 0.668165 -13.524154 5.517310 
-65.101837 52.715351 85.089027 5.468750 4.882813 -36.806641 39.650326 -13.433432 -7.586887 -39.931641 18.789064 1.748048 51.063168 8.107644 2.471410 -66.396484 -15.156250 -2.539063 2.000000 -2.000000 0.000000 -98.779297 29.482422 -39.633862 -60.774845 -1.274857 -2.455293 65.910309 55.084927 26.987366 -2.000000 2.000000 0.000000 95.742188 -29.921877 -45.307606 112.909355 -0.907141 -3.119737 -80.274361 -43.675446 103.316162 -11.074547 9.570796 46.080555 16.469986 -5.056555 -1.598086 1.592735 15.516923 -9.806936 1.237760 -9.471082 -55.240463 12.114401 4.513509 0.799523 5.339614 -14.288806 4.271008 
-66.524811 52.781803 86.949181 6.679688 4.355469 -36.581287 39.114616 -13.841841 -8.226854 -39.931641 18.613283 1.933594 51.063168 8.107644 2.471410 -64.404297 -14.062498 -3.359376 2.000000 -2.000000 0.000000 -96.875000 30.009768 -38.393547 -61.124504 -1.485937 -2.384342 64.668900 54.800247 26.471447 -2.000000 2.000000 0.000000 96.953125 -30.693361 -46.001083 111.848206 -0.900382 -3.236530 -79.925972 -44.850365 102.226051 -9.365185 6.131826 46.200272 4.266419 -5.342024 -0.566643 5.942604 12.861650 -9.788525 1.957410 -9.518069 -53.587135 13.666099 4.610436 1.271377 11.557980 -15.118902 4.515278 
-67.953003 52.670975 88.794983 7.392578 3.994141 -36.572266 39.060150 -14.548318 -9.327597 -39.931641 18.789064 2.099610 51.063168 8.107644 2.471410 -62.949223 -12.871093 -3.632813 2.000000 -2.000000 0.000000 -93.164063 29.179688 -35.249146 -60.958488 -1.485937 -2.384342 61.654602 53.782597 24.331255 -2.000000 2.000000 0.000000 97.128906 -30.400391 -46.396481 110.973862 -0.881839 -3.049828 -78.508690 -46.864365 100.015366 -7.597429 4.671449 46.315609 -2.760261 -5.331940 0.046165 6.858455 9.176711 -11.062928 2.460465 -10.107129 -51.190853 15.979318 4.444312 1.259106 20.343470 -15.351111 4.293590 
-69.385818 52.274822 90.632927 7.744141 3.652344 -37.118519 39.704117 -15.204488 -11.039321 -39.570316 19.316406 2.041016 51.063168 8.107644 2.471410 -62.949223 -11.474607 -2.304688 2.000000 -2.000000 0.000000 -89.882813 26.943359 -32.700649 -60.956066 -1.304781 -2.296872 59.694782 53.462337 22.555134 -2.000000 2.000000 0.000000 96.601563 -29.375002 -45.854401 110.260712 -0.862904 -3.038954 -76.503723 -48.962452 97.284500 -7.042266 7.972870 47.873524 4.260134 -5.321630 -0.595557 1.396339 8.413497 -10.588117 2.778977 -11.276618 -49.721222 18.984917 4.346640 1.489390 27.638445 -15.010898 1.755750 
-70.822670 52.145756 92.469467 7.714845 3.271485 -38.212330 40.972061 -15.902620 -13.791204 -39.033207 20.390625 2.060547 51.063168 8.107644 2.471410 -64.404297 -10.087890 0.371094 2.000000 -2.000000 0.000000 -86.738281 22.236328 -30.845913 -61.486130 -1.467006 -2.395221 57.890137 53.259953 20.791582 -2.000000 2.000000 0.000000 96.289063 -27.539063 -44.320923 109.205658 -0.970711 -3.035411 -74.679810 -50.758492 94.978142 -7.151955 12.755240 49.536068 13.095916 -4.702641 -1.264766 -4.067527 7.732906 -10.711775 -2.423770 -13.074041 -50.786865 27.934145 3.986223 2.304549 19.451380 -19.357557 -0.921949 
-72.263237 52.142677 94.311119 7.558594 2.949219 -39.687000 42.166348 -16.525805 -16.362776 -38.681644 21.445313 2.031251 51.063168 8.107644 2.471410 -66.445313 -9.316406 3.904670 2.000000 -2.000000 0.000000 -84.443359 17.519531 -28.844719 -61.826782 -1.327683 -2.354434 56.434032 53.527966 18.343872 -2.000000 2.000000 0.000000 96.953125 -25.996094 -42.787483 108.870186 -0.607338 -3.229408 -72.503738 -51.819328 93.121506 -4.826856 15.103874 51.771988 17.857655 -4.735307 -1.718102 -8.653466 7.248425 -10.912927 -8.496419 -13.964233 -53.133034 34.465580 3.654176 2.424403 1.729017 -22.924784 -2.518322 
-73.706825 52.047321 96.164459 7.197266 2.773438 -40.771008 42.894531 -16.690298 -17.812979 -38.710941 22.148441 1.855469 51.063168 8.107644 2.471410 -67.333984 -9.189452 6.523438 2.000000 -2.000000 0.000000 -83.466797 14.287109 -27.790556 -62.347565 -1.129186 -2.473543 55.313358 53.039776 17.375317 -2.000000 2.000000 0.000000 97.509766 -25.537109 -41.342102 108.859467 -0.794265 -3.210854 -69.291519 -53.214840 91.009415 -0.944015 14.769132 52.505302 15.861829 -4.616811 -1.543339 -9.316857 7.786079 -12.195781 -10.820845 -11.385366 -55.737770 28.279108 4.453832 2.322625 -5.541265 -21.542021 -0.864095 
-75.153053 51.986732 98.035950 6.679688 2.792969 -41.327648 42.990623 -16.206274 -18.359163 -39.101566 22.851563 1.728516 51.063168 8.107644 2.471410 -65.957031 -9.716795 8.486327 2.000000 -2.000000 0.000000 -85.390625 14.570313 -28.718245 -62.696785 -1.280638 -2.386505 54.353130 52.109703 17.724838 -2.000000 2.000000 0.000000 97.207031 -26.328125 -40.209412 109.212433 -0.762202 -3.257895 -67.865685 -53.663960 90.682152 0.595194 15.303008 51.691334 17.681637 -4.553540 -1.669351 -2.806477 8.699348 -11.313064 -12.246320 -7.830703 -57.164524 18.770386 4.834386 1.544133 -7.680442 -19.432283 2.595706 
-76.607048 51.975136 99.931747 6.152344 3.320313 -41.152344 42.499969 -15.343798 -17.973360 -39.873051 23.349607 1.406250 51.063168 8.107644 2.471410 -63.447266 -11.054687 9.863282 2.000000 -2.000000 0.000000 -88.369141 16.269533 -30.436712 -62.875198 -1.110254 -2.484423 53.675369 50.430332 18.967604 -2.000000 2.000000 0.000000 94.951172 -27.304688 -38.275963 110.079849 -0.843575 -3.203919 -68.115311 -53.413170 91.511711 2.721974 14.725456 49.863255 18.391994 -4.903845 -1.746667 1.554730 9.943428 -10.520388 -12.392419 -5.269342 -54.340355 12.054321 5.046023 1.182233 -3.811714 -19.497061 4.805707 
-78.071228 52.136799 101.847908 5.263672 4.023438 -40.419239 41.901184 -14.310818 -16.977194 -40.664063 23.515625 1.093750 51.063168 8.107644 2.471410 -61.250000 -12.373046 9.951173 2.000000 -2.000000 0.000000 -91.611328 18.525391 -32.985180 -62.875198 -1.110254 -2.484423 53.696075 49.628216 20.186665 -2.000000 2.000000 0.000000 92.500000 -28.212891 -36.332741 111.325417 -0.891588 -3.050391 -69.190681 -52.699066 93.366920 3.856754 13.720689 47.475639 19.117382 -4.910812 -1.807266 8.136233 11.279123 -9.762618 -11.913115 -3.335683 -49.606983 6.062922 5.184306 0.216025 1.968571 -20.495813 6.634821 
-79.541290 52.477558 103.776466 4.384766 5.058594 -39.687500 41.420368 -14.004098 -15.715379 -41.230473 23.486328 1.054689 51.063168 8.107644 2.471410 -60.273441 -13.378906 8.633140 2.000000 -2.000000 0.000000 -94.189453 20.800783 -35.839844 -62.356384 -1.440026 -2.435905 54.996597 50.221718 21.270031 -2.000000 2.000000 0.000000 90.429688 -28.828125 -35.551586 112.550735 -0.950255 -3.219849 -69.678795 -51.746014 95.218864 4.339768 13.443303 45.200768 21.756414 -4.833667 -2.022139 16.666174 11.766558 -8.498645 -10.740462 -2.709063 -47.725239 3.232133 5.214352 0.234040 5.058362 -19.297865 7.742414 
-81.012978 52.939472 105.709061 3.505859 5.937500 -38.817348 41.221695 -14.129061 -13.410636 -41.376953 22.246096 1.015625 51.063168 8.107644 2.471410 -60.341797 -13.720701 5.361328 2.000000 -2.000000 0.000000 -94.843750 22.724611 -36.832169 -61.650730 -1.327115 -2.344688 55.988602 51.800064 21.475193 -2.000000 2.000000 0.000000 90.058594 -28.466797 -36.464848 113.600723 -0.979332 -3.055465 -71.053917 -50.716267 97.170738 -0.414950 14.955296 42.921219 28.788967 -4.570549 -2.605054 15.110221 14.397692 -7.203535 -9.697372 -6.705049 -48.493664 8.564470 5.107682 0.869310 1.561387 -19.686140 7.554103 
-82.482018 52.886448 107.637604 2.998047 6.494141 -37.967644 40.874836 -14.795218 -10.120625 -41.289063 20.488283 1.093751 51.063168 8.107644 2.471410 -60.703129 -13.847655 0.722656 2.000000 -2.000000 0.000000 -94.970703 24.033203 -36.958912 -60.775810 -1.364866 -2.489168 58.108120 52.987011 22.440588 -2.000000 2.000000 0.000000 91.083984 -27.949217 -39.194031 114.468987 -1.039519 -3.029613 -71.677101 -50.036163 98.550789 -6.758755 15.680549 41.064106 34.802841 -4.445866 -3.108214 6.870232 16.858126 -6.542689 -8.195388 -10.248034 -51.178909 13.494555 5.001610 1.121194 -2.242383 -18.344479 6.877140 
-83.944008 52.733288 109.553764 2.636719 6.650391 -37.646484 40.696144 -15.510063 -7.859951 -41.435547 19.433594 1.250001 51.063168 8.107644 2.471410 -61.250000 -13.779295 -3.193360 2.000000 -2.000000 0.000000 -95.048828 25.253908 -37.304688 -60.431053 -1.544432 -2.380939 59.757618 54.406948 22.950777 -2.000000 2.000000 0.000000 93.076172 -27.333984 -41.328125 114.127762 -1.009144 -3.047412 -72.388336 -49.753422 100.255150 -11.172297 14.758454 39.385670 34.616219 -4.576766 -2.975595 3.790495 18.446047 -8.798686 -5.570739 -11.613670 -53.519936 14.723031 4.462079 0.851519 -4.046735 -16.980476 6.224424 
-85.394630 52.762070 111.449448 2.822266 6.142578 -37.675781 40.773930 -15.961486 -7.024367 -41.416016 18.906248 1.611329 51.063168 8.107644 2.471410 -61.250000 -13.779295 -5.654297 2.000000 -2.000000 0.000000 -95.605469 27.412111 -37.666016 -60.588089 -1.174531 -2.412235 60.720585 55.380116 23.428595 -2.000000 2.000000 0.000000 94.843750 -26.455078 -42.285156 112.907661 -0.959269 -3.064084 -72.612938 -49.727119 100.731255 -13.251794 13.236990 39.927460 31.034733 -4.500260 -2.966533 0.913430 18.621058 -10.073587 -2.911098 -12.128384 -55.060444 16.145794 4.405332 1.452191 -2.327348 -15.135192 6.631050 
